<?xml version="1.0" encoding="utf-8"?>
<!-- Generator: Adobe Illustrator 21.0.2, SVG Export Plug-In . SVG Version: 6.00 Build 0)  -->
<svg version="1.1" id="Layer_1" xmlns="http://www.w3.org/2000/svg" xmlns:xlink="http://www.w3.org/1999/xlink" x="0px" y="0px"
	 viewBox="0 0 24 24" style="enable-background:new 0 0 24 24;" xml:space="preserve">
<path d="M12,21c-5,0-9-4-9-9s4-9,9-9s9,4,9,9S17,21,12,21z M19.6,13.2c-0.3-0.1-2.4-0.7-4.8-0.3c1,2.8,1.4,5,1.5,5.5
	C18,17.2,19.2,15.4,19.6,13.2z M15,19.1c-0.1-0.7-0.6-3-1.6-5.8c0,0,0,0-0.1,0c-4.3,1.5-5.9,4.5-6,4.8c1.3,1,2.9,1.6,4.7,1.6
	C13.1,19.7,14.1,19.5,15,19.1z M6.3,17.2c0.2-0.3,2.3-3.8,6.2-5.1c0.1,0,0.2-0.1,0.3-0.1c-0.2-0.4-0.4-0.9-0.6-1.3
	c-3.8,1.1-7.6,1.1-7.9,1.1c0,0.1,0,0.2,0,0.2C4.3,14,5.1,15.8,6.3,17.2z M4.5,10.4c0.3,0,3.5,0,7.1-0.9c-1.3-2.3-2.6-4.2-2.9-4.4
	C6.6,6.1,5,8.1,4.5,10.4z M10.2,4.5c0.2,0.3,1.6,2.2,2.9,4.5c2.7-1,3.9-2.6,4-2.8C15.7,5.1,14,4.3,12,4.3
	C11.4,4.3,10.8,4.4,10.2,4.5z M18,7.2c-0.2,0.2-1.5,1.9-4.3,3c0.2,0.4,0.4,0.7,0.5,1.1c0.1,0.1,0.1,0.3,0.2,0.4
	c2.6-0.3,5.1,0.2,5.4,0.2C19.7,10.1,19,8.5,18,7.2z"/>
</svg>
